<?xml version="1.0" encoding="UTF-8"?>
<svg xmlns="http://www.w3.org/2000/svg" xmlns:xlink="http://www.w3.org/1999/xlink" width="582.85pt" height="109.01pt" viewBox="0 0 582.85 109.01" version="1.1">
<defs>
<clipPath id="clip1">
  <path d="M 0 0 L 67 0 L 67 109.011719 L 0 109.011719 Z M 0 0 "/>
</clipPath>
<clipPath id="clip2">
  <path d="M 0 69 L 86 69 L 86 109.011719 L 0 109.011719 Z M 0 69 "/>
</clipPath>
<clipPath id="clip3">
  <path d="M 0 54 L 49 54 L 49 109.011719 L 0 109.011719 Z M 0 54 "/>
</clipPath>
<clipPath id="clip4">
  <path d="M 486 0 L 582.851563 0 L 582.851563 109 L 486 109 Z M 486 0 "/>
</clipPath>
</defs>
<g id="surface1">
<g clip-path="url(#clip1)" clip-rule="nonzero">
<path style=" stroke:none;fill-rule:nonzero;fill:rgb(10.198975%,25.898743%,47.099304%);fill-opacity:1;" d="M 0 -0.00390625 L 66.832031 54.503906 L 0 109.011719 Z M 0 -0.00390625 "/>
</g>
<g clip-path="url(#clip2)" clip-rule="nonzero">
<path style=" stroke:none;fill-rule:nonzero;fill:rgb(85.899353%,85.899353%,85.899353%);fill-opacity:1;" d="M 48.5625 69.367188 L 0 109.011719 L 85.230469 108.886719 Z M 48.5625 69.367188 "/>
</g>
<path style=" stroke:none;fill-rule:nonzero;fill:rgb(85.899353%,85.899353%,85.899353%);fill-opacity:1;" d="M 0 -0.00390625 L 48.5625 39.636719 L 85.230469 -0.00390625 Z M 0 -0.00390625 "/>
<g clip-path="url(#clip3)" clip-rule="nonzero">
<path style=" stroke:none;fill-rule:nonzero;fill:rgb(5.499268%,57.598877%,81.599426%);fill-opacity:1;" d="M 0 109.011719 L 48.5625 69.367188 L 35.675781 54.503906 L 0 94.144531 L 0 109.011719 "/>
</g>
<path style=" stroke:none;fill-rule:nonzero;fill:rgb(4.299927%,74.099731%,89.7995%);fill-opacity:1;" d="M 0 14.859375 L 0 94.144531 L 35.675781 54.503906 Z M 0 14.859375 "/>
<path style=" stroke:none;fill-rule:nonzero;fill:rgb(5.499268%,57.598877%,81.599426%);fill-opacity:1;" d="M 0 -0.00390625 L 48.5625 39.636719 L 35.675781 54.503906 L 0 14.859375 L 0 -0.00390625 "/>
<path style=" stroke:none;fill-rule:nonzero;fill:rgb(10.998535%,25.498962%,47.499084%);fill-opacity:1;" d="M 114.1875 108.773438 L 114.1875 22.199219 C 114.1875 14.355469 113.515625 9.625 112.171875 8.011719 C 110.824219 6.398438 106.394531 5.003906 98.871094 3.820313 L 98.871094 0.273438 L 176.09375 0.273438 L 176.578125 24.132813 L 172.066406 24.132813 C 172.066406 18.007813 170.613281 13.761719 167.710938 11.398438 C 164.808594 9.035156 160.457031 7.851563 154.652344 7.851563 L 142.078125 7.851563 C 137.886719 7.851563 135.144531 8.308594 133.855469 9.21875 C 132.566406 10.136719 131.921875 12.472656 131.921875 16.234375 L 131.921875 48.316406 L 151.429688 48.316406 C 154.007813 48.316406 156.183594 47.96875 157.957031 47.269531 C 159.730469 46.570313 161.046875 45.46875 161.90625 43.960938 C 162.765625 42.457031 163.359375 41.222656 163.683594 40.253906 C 164.003906 39.289063 164.324219 37.835938 164.648438 35.902344 L 169.164063 35.902344 L 169.164063 69.757813 L 164.648438 69.757813 C 164.648438 60.515625 160.238281 55.894531 151.429688 55.894531 L 131.921875 55.894531 L 131.921875 91.84375 C 131.921875 96.144531 132.539063 98.777344 133.773438 99.746094 C 135.007813 100.710938 137.777344 101.195313 142.078125 101.195313 L 159.972656 101.195313 C 164.808594 101.195313 168.328125 100.09375 170.53125 97.890625 C 172.734375 95.691406 174.054688 91.523438 174.484375 85.398438 L 178.996094 85.398438 L 178.511719 108.773438 L 114.1875 108.773438 "/>
<path style=" stroke:none;fill-rule:nonzero;fill:rgb(10.998535%,25.498962%,47.499084%);fill-opacity:1;" d="M 219.621094 55.25 L 219.621094 94.585938 C 219.621094 96.199219 219.96875 97.460938 220.671875 98.375 C 221.367188 99.289063 222.550781 99.960938 224.21875 100.390625 C 225.882813 100.820313 227.386719 101.0625 228.730469 101.113281 C 230.074219 101.171875 232.199219 101.195313 235.101563 101.195313 C 243.910156 101.195313 250.335938 99.207031 254.367188 95.230469 C 258.398438 91.257813 260.410156 85.128906 260.410156 76.851563 C 260.410156 69.332031 257.992188 63.847656 253.15625 60.40625 C 248.320313 56.96875 242.03125 55.25 234.292969 55.25 Z M 219.621094 16.234375 L 219.621094 47.671875 L 230.425781 47.671875 C 246.761719 47.671875 254.929688 40.847656 254.929688 27.195313 C 254.929688 20.210938 253.019531 15.242188 249.207031 12.285156 C 245.390625 9.328125 239.667969 7.851563 232.035156 7.851563 C 226.878906 7.851563 223.519531 8.308594 221.960938 9.21875 C 220.402344 10.136719 219.621094 12.472656 219.621094 16.234375 Z M 201.890625 108.773438 L 201.890625 22.199219 C 201.890625 14.246094 201.214844 9.492188 199.875 7.929688 C 198.527344 6.375 194.09375 5.003906 186.574219 3.820313 L 186.574219 0.273438 L 234.453125 0.273438 C 259.929688 0.273438 272.664063 8.976563 272.664063 26.390625 C 272.664063 38.539063 266.214844 46.703125 253.316406 50.894531 L 253.316406 51.21875 C 269.867188 54.441406 278.144531 64.011719 278.144531 79.914063 C 278.144531 83.894531 277.5 87.441406 276.210938 90.554688 C 274.921875 93.675781 273.335938 96.226563 271.453125 98.214844 C 269.574219 100.203125 267.128906 101.921875 264.117188 103.371094 C 261.109375 104.824219 258.398438 105.871094 255.976563 106.515625 C 253.558594 107.160156 250.578125 107.671875 247.03125 108.046875 C 243.484375 108.425781 240.824219 108.640625 239.050781 108.691406 C 237.277344 108.746094 234.992188 108.773438 232.199219 108.773438 L 201.890625 108.773438 "/>
<path style=" stroke:none;fill-rule:nonzero;fill:rgb(10.998535%,25.498962%,47.499084%);fill-opacity:1;" d="M 329.414063 20.585938 L 312.164063 67.664063 L 347.792969 67.664063 Z M 287.335938 108.773438 L 319.417969 20.910156 C 321.242188 15.75 322.160156 12.582031 322.160156 11.398438 C 322.160156 10.648438 322.105469 10.003906 321.996094 9.460938 C 321.890625 8.925781 321.675781 8.414063 321.351563 7.929688 C 321.03125 7.445313 320.734375 7.046875 320.464844 6.722656 C 320.195313 6.398438 319.738281 6.105469 319.097656 5.835938 C 318.449219 5.566406 317.9375 5.351563 317.5625 5.191406 C 317.1875 5.03125 316.597656 4.867188 315.789063 4.707031 C 314.984375 4.546875 314.363281 4.4375 313.9375 4.382813 C 313.507813 4.332031 312.78125 4.25 311.761719 4.140625 C 310.738281 4.035156 310.066406 3.929688 309.746094 3.820313 L 309.746094 0.273438 L 340.054688 0.273438 L 379.390625 108.773438 L 362.625 108.773438 L 350.53125 75.238281 L 309.421875 75.238281 L 297.332031 108.773438 L 287.335938 108.773438 "/>
<path style=" stroke:none;fill-rule:nonzero;fill:rgb(10.998535%,25.498962%,47.499084%);fill-opacity:1;" d="M 395.835938 108.773438 L 395.835938 20.910156 C 395.835938 14.246094 395.109375 10.105469 393.65625 8.496094 C 392.207031 6.882813 388.417969 5.488281 382.289063 4.304688 C 381.214844 4.089844 380.355469 3.929688 379.710938 3.820313 L 379.710938 0.273438 L 413.730469 0.273438 L 464.511719 87.976563 L 464.835938 87.976563 L 464.835938 0.273438 L 474.992188 0.273438 L 474.992188 108.773438 L 459.515625 108.773438 L 406.3125 17.039063 L 405.988281 17.039063 L 405.988281 108.773438 L 395.835938 108.773438 "/>
<g clip-path="url(#clip4)" clip-rule="nonzero">
<path style=" stroke:none;fill-rule:nonzero;fill:rgb(10.998535%,25.498962%,47.499084%);fill-opacity:1;" d="M 495.628906 108.773438 L 529.320313 53.3125 L 507.394531 17.363281 C 504.277344 12.417969 501.617188 9.167969 499.414063 7.609375 C 497.210938 6.050781 492.992188 4.789063 486.761719 3.820313 L 486.761719 0.273438 L 517.230469 0.273438 L 543.027344 42.351563 L 568.015625 0.273438 L 579.945313 0.273438 L 548.023438 50.734375 L 582.847656 108.773438 L 562.53125 108.773438 L 534.804688 61.859375 L 506.914063 108.773438 L 495.628906 108.773438 "/>
</g>
</g>
</svg>
